<svg width="181" height="181" viewBox="0 0 181 181" fill="none" xmlns="http://www.w3.org/2000/svg">
    <g id="Group">
        <g id="Vector" style="mix-blend-mode:multiply">
            <path d="M90.4825 180.046C140.188 180.046 180.483 139.752 180.483 90.0459C180.483 40.3403 140.188 0.0458984 90.4825 0.0458984C40.7769 0.0458984 0.482544 40.3403 0.482544 90.0459C0.482544 139.752 40.7769 180.046 90.4825 180.046Z" fill="#EF485C"/>
        </g>
        <g id="Group_2">
            <g id="F8GCQR">
                <path id="Vector_2"
                      d="M90.5643 74.8925C91.953 70.4974 93.9953 66.9112 97.4019 64.2725C103.7 59.3955 110.636 58.1701 117.931 61.5195C125.218 64.8607 129.098 70.9059 129.809 78.83C130.43 85.7575 127.873 91.868 124.131 97.4966C118.862 105.429 111.919 111.768 104.362 117.438C100.416 120.395 96.2092 123.017 92.1328 125.803C91.1606 126.473 90.2375 126.669 89.1265 125.991C78.0899 119.169 67.8212 111.425 59.6112 101.254C55.0283 95.5769 51.7443 89.2866 51.1234 81.8444C50.4535 73.7733 54.9057 65.6613 62.0783 61.9116C68.9241 58.3335 77.6814 59.1994 83.5061 64.0356C86.3081 66.3638 88.2115 69.3292 89.633 72.6459C89.8944 73.2504 90.1395 73.8631 90.5643 74.8843V74.8925Z"
                      stroke="white" stroke-width="3" stroke-linecap="round" stroke-linejoin="round"/>
            </g>
            <g id="F8GCQR_2">
                <path id="Vector_3" d="M113.528 66.4531C119.206 69.0591 122.228 73.7646 122.784 79.9405" stroke="white" stroke-width="2.34" stroke-linecap="round" stroke-linejoin="round"/>
            </g>
            <g id="Group_3">
                <path id="Vector_4" d="M90.4826 96.5814C94.2769 96.5814 97.3529 93.5055 97.3529 89.7111C97.3529 85.9168 94.2769 82.8408 90.4826 82.8408C86.6882 82.8408 83.6123 85.9168 83.6123 89.7111C83.6123 93.5055 86.6882 96.5814 90.4826 96.5814Z" fill="white"/>
                <path id="Vector_5" d="M103.717 108.86C103.717 101.549 97.7857 95.6177 90.4743 95.6177C83.1629 95.6177 77.2321 101.549 77.2321 108.86H103.708" fill="white"/>
            </g>
        </g>
    </g>
</svg>
