<svg width="181" height="181" viewBox="0 0 181 181" fill="none" xmlns="http://www.w3.org/2000/svg">
<g id="Group">
<g id="Vector" style="mix-blend-mode:multiply">
<path d="M90.3845 180.732C140.09 180.732 180.385 140.438 180.385 90.7324C180.385 41.0268 140.09 0.732422 90.3845 0.732422C40.6789 0.732422 0.384521 41.0268 0.384521 90.7324C0.384521 140.438 40.6789 180.732 90.3845 180.732Z" fill="#48C0B7"/>
</g>
<g id="Group_2">
<path id="Vector_2" d="M65.9668 71.0935L75.9006 73.0949L79.7891 65.9387L87.9583 68.5937L92.7536 61.9521" stroke="white" stroke-width="2.34" stroke-linecap="round" stroke-linejoin="round"/>
<path id="Vector_3" d="M92.7536 61.9524L93.6032 60.7842L112.131 110.404C114.721 117.34 111.2 125.059 104.264 127.649L101.74 128.588C94.8041 131.178 87.0842 127.657 84.4945 120.722L65.9668 71.1019" stroke="white" stroke-width="3" stroke-linecap="round" stroke-linejoin="round"/>
<path id="Vector_4" d="M110.497 106.025L82.8607 116.343" stroke="white" stroke-width="2.34" stroke-linecap="round" stroke-linejoin="round"/>
<path id="Vector_5" d="M112.221 110.632L84.5845 120.95" stroke="white" stroke-width="2.34" stroke-linecap="round" stroke-linejoin="round"/>
<path id="Vector_6" d="M108.643 101.059L81.0063 111.376" stroke="white" stroke-width="2.34" stroke-linecap="round" stroke-linejoin="round"/>
<path id="Vector_7" d="M75.9006 73.0952L89.0694 108.362" stroke="white" stroke-width="2.34" stroke-linecap="round" stroke-linejoin="round"/>
<path id="Vector_8" d="M87.9583 68.5938L101.127 103.86" stroke="white" stroke-width="2.34" stroke-linecap="round" stroke-linejoin="round"/>
<g id="Group_3">
<path id="Vector_9" d="M75.917 48.171C74.1116 46.8884 71.5791 47.8279 71.0563 49.9845L68.7036 59.7304L84.078 53.9874L75.9088 48.1628L75.917 48.171Z" fill="white" stroke="white" stroke-width="3" stroke-linecap="round" stroke-linejoin="round"/>
<path id="Vector_10" d="M93.6032 60.7759L84.1269 54.02C78.7516 56.0378 72.9351 58.2272 68.6872 59.8038L65.9668 71.0936" stroke="white" stroke-width="3" stroke-linecap="round" stroke-linejoin="round"/>
</g>
</g>
</g>
</svg>
