<svg width="181" height="181" viewBox="0 0 181 181" fill="none" xmlns="http://www.w3.org/2000/svg">
<g id="Group">
<g id="Vector" style="mix-blend-mode:multiply">
<path d="M90.9417 180.046C140.647 180.046 180.942 139.752 180.942 90.0459C180.942 40.3403 140.647 0.0458984 90.9417 0.0458984C41.236 0.0458984 0.94165 40.3403 0.94165 90.0459C0.94165 139.752 41.236 180.046 90.9417 180.046Z" fill="#F16022"/>
</g>
<g id="Group_2">
<path id="Vector_2" d="M120.735 73.3319C123.512 78.2742 125.097 83.9763 125.097 90.046C125.097 108.909 109.804 124.201 90.9415 124.201C72.0789 124.201 56.7861 108.909 56.7861 90.046C56.7861 71.1834 72.0789 55.8906 90.9415 55.8906C96.5783 55.8906 101.888 57.2549 106.577 59.673" stroke="white" stroke-width="3" stroke-linecap="round" stroke-linejoin="round"/>
<path id="Vector_3" d="M90.9416 113.638C103.971 113.638 114.534 103.076 114.534 90.0458C114.534 77.0159 103.971 66.4531 90.9416 66.4531C77.9118 66.4531 67.349 77.0159 67.349 90.0458C67.349 103.076 77.9118 113.638 90.9416 113.638Z" stroke="white" stroke-width="3" stroke-linecap="round" stroke-linejoin="round"/>
<path id="Vector_4" d="M104.047 92.1451C105.204 84.9145 100.28 78.1152 93.0497 76.9583C85.8192 75.8015 79.0198 80.7252 77.863 87.9558C76.7061 95.1863 81.6298 101.986 88.8604 103.143C96.091 104.299 102.89 99.3757 104.047 92.1451Z" stroke="white" stroke-width="3" stroke-linecap="round" stroke-linejoin="round"/>
<path id="Vector_5" d="M96.227 90.0456C96.227 92.9702 93.858 95.3392 90.9334 95.3392C88.0088 95.3392 85.6398 92.9702 85.6398 90.0456C85.6398 87.121 88.0088 84.752 90.9334 84.752C93.858 84.752 96.227 87.121 96.227 90.0456Z" fill="white"/>
<path id="Vector_6" d="M122.197 55.7842L90.9417 90.0458" stroke="white" stroke-width="3" stroke-linecap="round" stroke-linejoin="round"/>
<path id="Vector_7" d="M109.085 70.1049C109.085 70.1049 106.3 57.8429 107.55 55.2941C108.799 52.7453 118.227 44.4536 118.227 44.4536V59.583" stroke="white" stroke-width="2.2" stroke-linecap="round" stroke-linejoin="round"/>
<path id="Vector_8" d="M109.29 70.1373C109.29 70.1373 121.503 73.1272 124.076 71.9263C126.649 70.7254 135.096 61.4289 135.096 61.4289L119.967 61.1675" stroke="white" stroke-width="2.2" stroke-linecap="round" stroke-linejoin="round"/>
</g>
</g>
</svg>
