<svg width="181" height="181" viewBox="0 0 181 181" fill="none" xmlns="http://www.w3.org/2000/svg">
<g id="Group">
<g id="Vector" style="mix-blend-mode:multiply">
<path d="M90.04 180.732C139.746 180.732 180.04 140.438 180.04 90.7324C180.04 41.0268 139.746 0.732422 90.04 0.732422C40.3344 0.732422 0.0400391 41.0268 0.0400391 90.7324C0.0400391 140.438 40.3344 180.732 90.04 180.732Z" fill="#FEC24E"/>
</g>
<g id="Group_2">
<path id="Vector_2" d="M117.252 72.0982C117.252 56.5849 104.271 44.1024 88.5696 44.9193C74.298 45.6709 62.8367 57.7613 62.8203 72.0573C62.8203 77.3755 64.3316 82.3424 66.9703 86.5413C70.6219 92.3496 72.8031 94.8412 72.8031 101.703V110.42H107.269V101.703C107.269 94.8412 109.458 92.3578 113.102 86.5413C115.732 82.3587 117.252 77.4082 117.252 72.0982Z" stroke="white" stroke-width="3" stroke-linecap="round" stroke-linejoin="round"/>
<path id="Vector_3" d="M89.7459 127.886C80.384 127.886 72.803 120.297 72.803 110.943V110.42H107.22C107.22 120.068 99.4019 127.886 89.7541 127.886H89.7459Z" stroke="white" stroke-width="3.05" stroke-linecap="round" stroke-linejoin="round"/>
<g id="Group_3">
<path id="Vector_4" d="M94.5984 110.412L100.096 82.457" stroke="white" stroke-width="2.34" stroke-linecap="round" stroke-linejoin="round"/>
<path id="Vector_5" d="M85.4163 110.412L79.9266 82.457" stroke="white" stroke-width="2.34" stroke-linecap="round" stroke-linejoin="round"/>
</g>
<g id="Group_4">
<path id="Vector_6" d="M82.2547 80.8146C83.3657 80.2755 84.4686 79.287 85.3427 77.5715C88.2428 71.902 76.7405 72.5964 84.248 80.9617" stroke="white" stroke-width="2.11" stroke-linecap="round" stroke-linejoin="round"/>
<path id="Vector_7" d="M77.1 80.9538C77.1 80.9538 79.6978 82.0648 82.2548 80.8149" stroke="white" stroke-width="2.11" stroke-linecap="round" stroke-linejoin="round"/>
<path id="Vector_8" d="M102.923 80.9538C102.923 80.9538 100.325 82.0648 97.7681 80.8149" stroke="white" stroke-width="2.11" stroke-linecap="round" stroke-linejoin="round"/>
<path id="Vector_9" d="M84.1091 80.9539C84.1091 80.9539 89.46 83.2331 92.36 77.5636C95.2601 71.8942 83.7579 72.5886 91.2654 80.9539" stroke="white" stroke-width="2.11" stroke-linecap="round" stroke-linejoin="round"/>
<path id="Vector_10" d="M90.9958 80.9539C90.9958 80.9539 96.3467 83.2331 99.2467 77.5636C102.147 71.8942 90.6446 72.5886 98.1521 80.9539" stroke="white" stroke-width="2.11" stroke-linecap="round" stroke-linejoin="round"/>
</g>
<path id="Vector_11" d="M110.014 71.3305C110.014 60.2613 100.75 51.3569 89.558 51.945" stroke="white" stroke-width="2.34" stroke-linecap="round" stroke-linejoin="round"/>
</g>
</g>
</svg>
