<svg width="181" height="181" viewBox="0 0 181 181" fill="none" xmlns="http://www.w3.org/2000/svg">
<g id="Group">
<g id="Vector" style="mix-blend-mode:multiply">
<path d="M90.4826 180.42C140.188 180.42 180.483 140.126 180.483 90.4199C180.483 40.7143 140.188 0.419922 90.4826 0.419922C40.777 0.419922 0.482605 40.7143 0.482605 90.4199C0.482605 140.126 40.777 180.42 90.4826 180.42Z" fill="#4D82BE"/>
</g>
<g id="Group_2">
<path id="Vector_2" d="M116.289 56.1582H66.0895C62.4621 56.1582 59.5215 59.0988 59.5215 62.7262V125.433C59.5215 129.06 62.4621 132.001 66.0895 132.001H116.289C119.917 132.001 122.857 129.06 122.857 125.433V62.7262C122.857 59.0988 119.917 56.1582 116.289 56.1582Z" stroke="white" stroke-width="3" stroke-linecap="round" stroke-linejoin="round"/>
<g id="Group_3">
<path id="Vector_3" d="M53.1576 68.4121H66.7511" stroke="white" stroke-width="3" stroke-linecap="round" stroke-linejoin="round"/>
<path id="Vector_4" d="M53.1576 81.3354H66.7511" stroke="white" stroke-width="3" stroke-linecap="round" stroke-linejoin="round"/>
<path id="Vector_5" d="M53.1576 94.251H66.7511" stroke="white" stroke-width="3" stroke-linecap="round" stroke-linejoin="round"/>
<path id="Vector_6" d="M53.1576 107.175H66.7511" stroke="white" stroke-width="3" stroke-linecap="round" stroke-linejoin="round"/>
<path id="Vector_7" d="M53.1576 120.09H66.7511" stroke="white" stroke-width="3" stroke-linecap="round" stroke-linejoin="round"/>
</g>
<path id="Vector_8" d="M72.8209 73.7139H101.74" stroke="white" stroke-width="2.34" stroke-linecap="round" stroke-linejoin="round"/>
<path id="Vector_9" d="M115.619 69.5967L107.18 78.0355" stroke="white" stroke-width="2.34" stroke-linecap="round" stroke-linejoin="round"/>
<path id="Vector_10" d="M115.619 78.0355L107.18 69.5967" stroke="white" stroke-width="2.34" stroke-linecap="round" stroke-linejoin="round"/>
<path id="Vector_11" d="M72.8209 88.688H101.74" stroke="white" stroke-width="2.34" stroke-linecap="round" stroke-linejoin="round"/>
<g id="Group_4">
<path id="Vector_12" d="M115.619 84.5708L109.378 90.8121" stroke="white" stroke-width="2.34" stroke-linecap="round" stroke-linejoin="round"/>
<path id="Vector_13" d="M109.378 90.812L107.45 86.9316" stroke="white" stroke-width="2.34" stroke-linecap="round" stroke-linejoin="round"/>
</g>
<g id="Group_5">
<path id="Vector_14" d="M115.619 98.6626L109.378 104.904" stroke="white" stroke-width="2.34" stroke-linecap="round" stroke-linejoin="round"/>
<path id="Vector_15" d="M109.378 104.904L107.45 101.023" stroke="white" stroke-width="2.34" stroke-linecap="round" stroke-linejoin="round"/>
</g>
<path id="Vector_16" d="M72.8209 101.783H101.74" stroke="white" stroke-width="2.34" stroke-linecap="round" stroke-linejoin="round"/>
<path id="Vector_17" d="M72.8209 114.887H101.74" stroke="white" stroke-width="2.34" stroke-linecap="round" stroke-linejoin="round"/>
<path id="Vector_18" d="M115.619 110.77L107.18 119.208" stroke="white" stroke-width="2.34" stroke-linecap="round" stroke-linejoin="round"/>
<path id="Vector_19" d="M115.619 119.208L107.18 110.77" stroke="white" stroke-width="2.34" stroke-linecap="round" stroke-linejoin="round"/>
</g>
</g>
</svg>
