<svg width="181" height="181" viewBox="0 0 181 181" fill="none" xmlns="http://www.w3.org/2000/svg">
<g id="Group">
<g id="Vector" style="mix-blend-mode:multiply">
<path d="M90.9417 180.42C140.647 180.42 180.942 140.126 180.942 90.4199C180.942 40.7143 140.647 0.419922 90.9417 0.419922C41.2361 0.419922 0.94165 40.7143 0.94165 90.4199C0.94165 140.126 41.2361 180.42 90.9417 180.42Z" fill="#9D6BAE"/>
</g>
<g id="Group_2">
<path id="Vector_2" d="M99.9929 118.007L99.5354 119.314C98.5143 122.222 95.3283 123.758 92.4119 122.737L74.5623 116.471C71.654 115.45 70.1182 112.264 71.1394 109.348L71.5968 108.041" stroke="white" stroke-width="2.69" stroke-linecap="round" stroke-linejoin="round"/>
<path id="Vector_3" d="M97.1257 117.558L74.1212 109.479C69.9876 108.024 67.8064 103.499 69.2605 99.357L78.0098 74.4246C82.9358 60.4063 94.6749 49.868 109.151 46.4941C118.333 58.1761 120.914 73.7384 115.997 87.7567L107.247 112.689C105.793 116.823 101.267 119.004 97.1257 117.55V117.558Z" stroke="white" stroke-width="2.69" stroke-linecap="round" stroke-linejoin="round"/>
<path id="Vector_4" d="M68.8194 102.38L57.8646 98.5321C55.8795 97.8377 54.8338 95.6566 55.5281 93.6633L58.5181 85.1592C61.5897 76.4099 70.1592 71.1572 78.9901 71.9169" stroke="white" stroke-width="2.69" stroke-linecap="round" stroke-linejoin="round"/>
<path id="Vector_5" d="M106.259 115.524L117.214 119.372C119.199 120.066 121.38 119.02 122.083 117.035L125.072 108.531C128.144 99.7819 124.746 90.3302 117.377 85.396" stroke="white" stroke-width="2.69" stroke-linecap="round" stroke-linejoin="round"/>
<path id="Vector_6" d="M107.533 92.2497C105.042 99.3487 97.2644 103.082 90.1654 100.59C83.0664 98.0989 79.333 90.3218 81.8246 83.2228C84.3162 76.1237 92.0933 72.3904 99.1923 74.882C106.291 77.3736 110.025 85.1507 107.533 92.2497Z" stroke="white" stroke-width="2.69" stroke-linecap="round" stroke-linejoin="round"/>
<path id="Vector_7" d="M102.795 90.5831C101.218 95.068 96.3087 97.4207 91.832 95.8523C87.3471 94.2756 84.9944 89.3659 86.5628 84.881C88.1395 80.3962 93.0492 78.0434 97.5341 79.6119C102.019 81.1886 104.372 86.0983 102.803 90.5831H102.795Z" fill="white"/>
<path id="Vector_8" d="M108.505 52.7026C108.505 52.7026 115.188 62.1217 113.497 78.5091" stroke="white" stroke-width="2.09" stroke-linecap="round" stroke-linejoin="round"/>
<path id="Vector_9" d="M71.8013 116.831L63.1991 128.619C62.4067 129.706 63.5749 131.127 64.7921 130.572L70.6412 127.908C71.597 127.467 72.6509 128.292 72.463 129.33L69.8733 143.414C69.6364 144.721 71.2703 145.505 72.1444 144.5L81.3511 133.864C82.07 133.039 83.4178 133.406 83.6221 134.477L85.1824 142.907C85.4438 144.304 87.4207 144.337 87.7393 142.956L88.785 138.332C89.0628 137.123 90.7129 136.944 91.2358 138.071C91.8321 139.354 93.76 138.904 93.7192 137.483L93.3597 124.183" fill="white"/>
</g>
</g>
</svg>
